<svg height="512" viewBox="0 0 512 512" width="512" xmlns="http://www.w3.org/2000/svg"><g><g fill="#57a4ff"><path d="m360 120v-16h-1.23a104.01 104.01 0 0 0 -205.54 0h-1.23v48s160-24 168-48l40 48z"/><path d="m280 408h-48l-8 40 16 8h-8l-8 40h64l-8-40h-8l16-8z"/><path d="m328 472h64v24h-64z"/></g><g fill="#004fac"><path d="m397.4 406.7-85.4-28.47v-33.27a112.055 112.055 0 0 0 56-96.96h4a28.031 28.031 0 0 0 28-28v-24a28.031 28.031 0 0 0 -28-28h-4v-48a112 112 0 0 0 -224 0v48h-4a28.031 28.031 0 0 0 -28 28v24a28.031 28.031 0 0 0 28 28h4a111.293 111.293 0 0 0 32.8 79.2 113 113 0 0 0 23.2 17.84v33.19l-85.4 28.47a85.591 85.591 0 0 0 -58.6 81.3v8a8 8 0 0 0 8 8h384a8 8 0 0 0 8-8v-8a85.591 85.591 0 0 0 -58.6-81.3zm-29.4-222.7h4a12.01 12.01 0 0 1 12 12v24a12.01 12.01 0 0 1 -12 12h-4zm-224 48h-4a12.01 12.01 0 0 1 -12-12v-24a12.01 12.01 0 0 1 12-12h4zm16-112a96 96 0 0 1 192 0v9.9l-25.85-31.02a7.96 7.96 0 0 0 -13.71 2.5c-.56 1.16-7.65 11.79-82.57 28.12-28.19 6.14-55.96 10.88-69.87 13.14zm28.12 195.88a95.378 95.378 0 0 1 -28.12-67.88v-89.16c13.24-2.12 43.84-7.25 74.71-14.03 52.2-11.45 74.98-20.7 85.17-28.46l32.12 38.55v93.1a96 96 0 0 1 -163.88 67.88zm107.88 36.73v28.01c-13.58 12.86-27.02 19.38-40 19.38s-26.42-6.52-40-19.38v-27.95a112.376 112.376 0 0 0 80-.06zm-78.56 135.39h-145.44a69.6 69.6 0 0 1 47.66-66.12l56.18-18.73 40.81 40.81-.49 2.47a8.011 8.011 0 0 0 4.26 8.73l3.26 1.63zm2.98-62.89-27.61-27.61 13.13-4.38a102.759 102.759 0 0 0 18.15 13.64zm13.34 62.89 4.76-23.8 13.9 6.96a8.049 8.049 0 0 0 7.16 0l13.9-6.96 4.76 23.8zm22.24-32.94-22.96-11.48 5.52-27.58h34.88l5.52 27.58zm31.91-48.3a102.759 102.759 0 0 0 18.15-13.64l13.13 4.38-27.61 27.61zm96.09 81.24h-48v-8h48zm16 0v-16a8 8 0 0 0 -8-8h-64a8 8 0 0 0 -8 8v16h-25.44l-6.24-31.21 3.26-1.63a8.011 8.011 0 0 0 4.26-8.73l-.49-2.47 40.81-40.81 56.18 18.73a69.6 69.6 0 0 1 47.66 66.12z"/><path d="m280 288a8 8 0 0 0 -8-8h-32a8 8 0 0 0 0 16h32a8 8 0 0 0 8-8z"/><path d="m200 184a8 8 0 0 0 -8 8v16a8 8 0 0 0 16 0v-16a8 8 0 0 0 -8-8z"/><path d="m312 216a8 8 0 0 0 8-8v-16a8 8 0 0 0 -16 0v16a8 8 0 0 0 8 8z"/></g></g></svg>