<svg height="512" viewBox="0 0 64 64" width="512" xmlns="http://www.w3.org/2000/svg"><g id="For_rent" data-name="For rent"><path d="m15 43h8v13h-8z" fill="#57a4ff"/><path d="m45 26h6v30h-6z" fill="#57a4ff"/><path d="m27 43h8v8h-8z" fill="#57a4ff"/><g fill="#004fac"><path d="m62 55h-1a1 1 0 0 0 0 2h1a1 1 0 0 0 0-2z"/><path d="m58 55h-6v-28h3a1 1 0 0 0 1-1v-15a1 1 0 0 0 -1-1h-46a1 1 0 0 0 -1 1v15a1 1 0 0 0 1 1h35v28h-5v-16a1 1 0 0 0 -.476-.852l-13-8a1 1 0 0 0 -1.048 0l-13 8a1 1 0 0 0 -.476.852v16h-9a1 1 0 0 0 0 2h56a1 1 0 0 0 0-2zm-48-43h44v13h-44zm12 33h-6v-1h6zm-6 10v-8h6v8zm8 0v-12a1 1 0 0 0 -1-1h-8a1 1 0 0 0 -1 1v12h-1v-15.441l12-7.385 12 7.385v15.441zm22 0v-28h4v28z"/><path d="m15 16a1 1 0 0 0 0-2h-2a1 1 0 0 0 -1 1v7a1 1 0 0 0 2 0v-3h1a1 1 0 0 0 0-2h-1v-1z"/><path d="m40 16a1 1 0 0 0 0-2h-2a1 1 0 0 0 -1 1v7a1 1 0 0 0 1 1h2a1 1 0 0 0 0-2h-1v-2h1a1 1 0 0 0 0-2h-1v-1z"/><path d="m27 14h-3a1 1 0 0 0 -1 1v7a1 1 0 0 0 2 0v-1.764l1.105 2.211a1 1 0 1 0 1.79-.894l-1.277-2.553h.382a1 1 0 0 0 1-1v-3a1 1 0 0 0 -1-1zm-1 3h-1v-1h1z"/><path d="m35 14h-3a1 1 0 0 0 -1 1v7a1 1 0 0 0 2 0v-1.764l1.1 2.211a1 1 0 1 0 1.79-.894l-1.272-2.553h.382a1 1 0 0 0 1-1v-3a1 1 0 0 0 -1-1zm-1 3h-1v-1h1z"/><path d="m35 42h-8a1 1 0 0 0 -1 1v8a1 1 0 0 0 1 1h8a1 1 0 0 0 1-1v-8a1 1 0 0 0 -1-1zm-7 2h6v1h-6zm0 6v-3h2v3zm6 0h-2v-3h2z"/><path d="m21 14h-3a1 1 0 0 0 -1 1v7a1 1 0 0 0 1 1h3a1 1 0 0 0 1-1v-7a1 1 0 0 0 -1-1zm-1 7h-1v-5h1z"/><path d="m46 23a.988.988 0 0 0 .2-.021 1 1 0 0 0 .8-.979v-7a1 1 0 0 0 -2 0v2.128l-1.081-2.522a1 1 0 0 0 -1.919.394v7a1 1 0 0 0 2 0v-2.128l1.081 2.522a1 1 0 0 0 .919.606z"/><path d="m48 16h1v6a1 1 0 0 0 2 0v-6h1a1 1 0 0 0 0-2h-4a1 1 0 0 0 0 2z"/></g></g></svg>