<svg xmlns="http://www.w3.org/2000/svg" viewBox="0 0 500 500"><g id="freepik--background-simple--inject-45"><path d="M330.07,83.24c32.05-7.68,64.6,3.26,83.59,28.69,25.57,34.23,30.58,82.19,6,118.08-12.79,18.65-32.72,32.69-55.07,39.82-11.58,3.69-23.08,4.74-35.19,5.34-16,.8-32.91-1-46.74,8.18-29.72,19.75-44.37,56.86-70.89,80.29-15.53,13.72-35.65,23.23-57,25.16-77.65,7-99.31-77.08-79.53-132.78,8.82-24.83,27.88-46.11,52-59.23,30.12-16.39,66.9-7.63,97.55-21.73,29.61-13.62,39.46-44.11,60-66C296.44,96.47,312.66,87.4,330.07,83.24Z" style="fill:#407BFF"></path><path d="M330.07,83.24c32.05-7.68,64.6,3.26,83.59,28.69,25.57,34.23,30.58,82.19,6,118.08-12.79,18.65-32.72,32.69-55.07,39.82-11.58,3.69-23.08,4.74-35.19,5.34-16,.8-32.91-1-46.74,8.18-29.72,19.75-44.37,56.86-70.89,80.29-15.53,13.72-35.65,23.23-57,25.16-77.65,7-99.31-77.08-79.53-132.78,8.82-24.83,27.88-46.11,52-59.23,30.12-16.39,66.9-7.63,97.55-21.73,29.61-13.62,39.46-44.11,60-66C296.44,96.47,312.66,87.4,330.07,83.24Z" style="fill:#fff;opacity:0.9"></path></g><g id="freepik--Shadow--inject-45"><ellipse id="freepik--path--inject-45" cx="250" cy="416.24" rx="193.89" ry="11.32" style="fill:#f5f5f5"></ellipse></g><g id="freepik--Device--inject-45"><rect x="101.92" y="111.53" width="164.83" height="248.44" rx="8.18" style="fill:#407BFF"></rect><g style="opacity:0.7000000000000001"><path d="M261.71,122.71V348.8a5.11,5.11,0,0,1-5.12,5.11H112.07A5.11,5.11,0,0,1,107,348.8V122.71a5.11,5.11,0,0,1,5.12-5.11h36.34a2.71,2.71,0,0,1,2.55,1.78l.69,1.88a2.74,2.74,0,0,0,2.56,1.79h61.42a2.73,2.73,0,0,0,2.72-2.73,2.72,2.72,0,0,1,2.73-2.72h35.51A5.11,5.11,0,0,1,261.71,122.71Z" style="fill:#fff"></path></g><rect x="106.95" y="145.1" width="154.76" height="62.82" style="fill:#fff"></rect><rect x="106.95" y="207.92" width="154.76" height="28.46" style="opacity:0.2;isolation:isolate"></rect><polygon points="134.79 169.65 147.89 156.01 175.55 156.01 189.99 169.65 134.79 169.65" style="fill:#407BFF"></polygon><polygon points="147.89 156.01 164.15 170.56 134.79 169.65 147.89 156.01" style="opacity:0.1"></polygon><rect x="197.87" y="170.93" width="0.67" height="17.99" style="fill:#407BFF"></rect><rect x="132.4" y="188.78" width="3.51" height="19.14" style="fill:#407BFF"></rect><rect x="132.4" y="188.78" width="3.51" height="19.14" style="fill:#fff;opacity:0.30000000000000004;isolation:isolate"></rect><rect x="133.68" y="190.56" width="2.23" height="17.36" style="fill:#fff;opacity:0.2;isolation:isolate"></rect><rect x="134.53" y="185.82" width="43.06" height="22.1" style="fill:#407BFF"></rect><rect x="134.53" y="185.82" width="43.06" height="22.1" style="fill:#fff;opacity:0.8;isolation:isolate"></rect><rect x="134.53" y="185.82" width="22.11" height="22.1" style="opacity:0.05"></rect><rect x="176.78" y="189.54" width="14.75" height="18.38" style="fill:#407BFF"></rect><rect x="176.78" y="189.54" width="14.75" height="18.38" style="fill:#fff;opacity:0.4;isolation:isolate"></rect><polygon points="191.53 189.54 191.53 196.64 183.01 200.29 183.01 207.92 176.78 207.92 176.78 189.54 191.53 189.54" style="opacity:0.1"></polygon><rect x="196.47" y="190.37" width="1.12" height="17.54" style="fill:#407BFF"></rect><rect x="193.86" y="190.37" width="1.12" height="17.54" style="fill:#407BFF"></rect><rect x="191.25" y="190.37" width="1.12" height="17.54" style="fill:#407BFF"></rect><rect x="188.64" y="190.37" width="1.12" height="17.54" style="fill:#407BFF"></rect><rect x="186.04" y="190.37" width="1.12" height="17.54" style="fill:#407BFF"></rect><path d="M197.59,183.59H183.4v.51h1.85v.51H183.4v.13h1.85v.52H183.4v.13h1.85v.52H183.4V186h1.85v.51H183.4v.14h1.85v.51H183.4v.14h1.85v.51H183.4V188h1.85v.51H183.4v.14h1.85v.28h.39v-.28h5.22v.28h.39v-.28h5.22v.28h.39V184.1h.73Zm-12,.51h5.22v.51h-5.22Zm0,.64h5.22v.52h-5.22Zm0,.65h5.22v.52h-5.22Zm0,.65h5.22v.51h-5.22Zm0,.65h5.22v.51h-5.22Zm0,.65h5.22v.51h-5.22Zm0,1.16V188h5.22v.51Zm10.83,0h-5.22V188h5.22Zm0-.65h-5.22v-.51h5.22Zm0-.65h-5.22v-.51h5.22Zm0-.65h-5.22V186h5.22Zm0-.64h-5.22v-.52h5.22Zm0-.65h-5.22v-.52h5.22Zm0-.65h-5.22v-.51h5.22Z" style="fill:#407BFF"></path><g style="opacity:0.2;isolation:isolate"><path d="M197.59,183.59H183.4v.51h1.85v.51H183.4v.13h1.85v.52H183.4v.13h1.85v.52H183.4V186h1.85v.51H183.4v.14h1.85v.51H183.4v.14h1.85v.51H183.4V188h1.85v.51H183.4v.14h1.85v.28h.39v-.28h5.22v.28h.39v-.28h5.22v.28h.39V184.1h.73Zm-12,.51h5.22v.51h-5.22Zm0,.64h5.22v.52h-5.22Zm0,.65h5.22v.52h-5.22Zm0,.65h5.22v.51h-5.22Zm0,.65h5.22v.51h-5.22Zm0,.65h5.22v.51h-5.22Zm0,1.16V188h5.22v.51Zm10.83,0h-5.22V188h5.22Zm0-.65h-5.22v-.51h5.22Zm0-.65h-5.22v-.51h5.22Zm0-.65h-5.22V186h5.22Zm0-.64h-5.22v-.52h5.22Zm0-.65h-5.22v-.52h5.22Zm0-.65h-5.22v-.51h5.22Z"></path></g><rect x="134.53" y="170.93" width="49.43" height="17.85" style="fill:#407BFF"></rect><rect x="134.53" y="170.93" width="49.43" height="17.85" style="fill:#fff;opacity:0.8;isolation:isolate"></rect><rect x="134.53" y="170.93" width="29.13" height="17.85" style="opacity:0.05"></rect><rect x="153.79" y="173.47" width="28.46" height="15.31" style="fill:#407BFF"></rect><path d="M153.79,173.47v15.31h28.46V173.47Zm27.31,14.32H154.8V174.64h26.3Z" style="fill:#fff;opacity:0.1;isolation:isolate"></path><rect x="153.79" y="173.47" width="10.75" height="15.31" style="opacity:0.1"></rect><rect x="155.76" y="174.64" width="24.11" height="12.97" style="fill:#407BFF"></rect><rect x="155.76" y="174.64" width="24.11" height="12.97" style="fill:#fff;opacity:0.5;isolation:isolate"></rect><polygon points="162.38 174.64 158.91 187.61 155.92 187.61 159.39 174.64 162.38 174.64" style="fill:#fff;opacity:0.30000000000000004"></polygon><polygon points="179.87 174.64 179.87 181.8 178.31 187.61 175.32 187.61 178.8 174.64 179.87 174.64" style="fill:#fff;opacity:0.30000000000000004"></polygon><polygon points="164.15 174.64 160.68 187.61 159.82 187.61 163.29 174.64 164.15 174.64" style="fill:#fff;opacity:0.30000000000000004"></polygon><polygon points="177.95 174.64 174.48 187.61 174.05 187.61 177.52 174.64 177.95 174.64" style="fill:#fff;opacity:0.30000000000000004"></polygon><rect x="155.76" y="174.64" width="8.02" height="12.97" style="opacity:0.05"></rect><rect x="144.77" y="193.36" width="8.3" height="7.16"></rect><rect x="136.49" y="193.36" width="7.77" height="7.16"></rect><rect x="136.49" y="193.36" width="7.77" height="7.16" style="fill:#407BFF"></rect><rect x="144.77" y="193.36" width="8.3" height="7.16" style="fill:#407BFF"></rect><rect x="144.77" y="193.36" width="8.3" height="7.16" style="fill:#fff;opacity:0.5;isolation:isolate"></rect><rect x="136.49" y="193.36" width="7.77" height="7.16" style="fill:#fff;opacity:0.5;isolation:isolate"></rect><polygon points="141.77 193.36 139.86 200.52 136.87 200.52 138.79 193.36 141.77 193.36" style="fill:#fff;opacity:0.30000000000000004"></polygon><polygon points="143.55 193.36 141.63 200.52 140.77 200.52 142.69 193.36 143.55 193.36" style="fill:#fff;opacity:0.30000000000000004"></polygon><polygon points="153.06 194.08 153.06 200.52 151.34 200.52 153.06 194.08" style="fill:#fff;opacity:0.30000000000000004"></polygon><polygon points="177.95 200.52 177.95 193.36 179.47 193.36 179.47 192.11 168.24 192.11 168.24 201.79 179.47 201.79 179.47 200.52 177.95 200.52" style="fill:#407BFF"></polygon><rect x="170.51" y="193.36" width="7.77" height="7.16"></rect><rect x="170.51" y="193.36" width="7.77" height="7.16" style="fill:#407BFF"></rect><rect x="170.51" y="193.36" width="7.77" height="7.16" style="fill:#fff;opacity:0.5;isolation:isolate"></rect><polygon points="175.79 193.36 173.88 200.52 170.89 200.52 172.81 193.36 175.79 193.36" style="fill:#fff;opacity:0.30000000000000004"></polygon><polygon points="177.56 193.36 175.65 200.52 174.79 200.52 176.71 193.36 177.56 193.36" style="fill:#fff;opacity:0.30000000000000004"></polygon><rect x="168.24" y="192.11" width="1.06" height="9.67" style="opacity:0.1"></rect><rect x="158.7" y="193.36" width="5.45" height="14.56" style="fill:#407BFF"></rect><rect x="158.7" y="193.36" width="4.95" height="14.56" style="fill:#fff;opacity:0.1;isolation:isolate"></rect><rect x="161.99" y="194.34" width="1.09" height="4.58" style="fill:#fff;opacity:0.2;isolation:isolate"></rect><rect x="164.93" y="190.39" width="2.8" height="17.53" style="fill:#407BFF"></rect><rect x="164.93" y="190.39" width="2.8" height="17.53" style="fill:#fff;opacity:0.30000000000000004;isolation:isolate"></rect><rect x="166.33" y="190.39" width="1.4" height="17.53" style="fill:#fff;opacity:0.2;isolation:isolate"></rect><rect x="186.07" y="190.39" width="2.8" height="17.53" style="fill:#407BFF"></rect><rect x="186.07" y="190.39" width="2.8" height="17.53" style="fill:#fff;opacity:0.30000000000000004;isolation:isolate"></rect><rect x="187.47" y="190.39" width="1.4" height="17.53" style="fill:#fff;opacity:0.2;isolation:isolate"></rect><rect x="133.89" y="188.78" width="66.18" height="1.82" style="fill:#407BFF"></rect><rect x="133.89" y="188.78" width="66.18" height="1.82" style="fill:#fff;opacity:0.30000000000000004;isolation:isolate"></rect><rect x="166.33" y="188.78" width="22.54" height="1.82" style="fill:#fff;opacity:0.2;isolation:isolate"></rect><rect x="133.89" y="169.65" width="65.33" height="1.82" style="fill:#407BFF"></rect><rect x="133.89" y="169.65" width="65.33" height="1.82" style="fill:#fff;opacity:0.30000000000000004;isolation:isolate"></rect><rect x="166.33" y="169.65" width="32.89" height="1.82" style="fill:#fff;opacity:0.2;isolation:isolate"></rect><rect x="134.5" y="176.52" width="12.68" height="7.16"></rect><rect x="134.5" y="176.52" width="12.68" height="7.16" style="fill:#407BFF"></rect><rect x="134.5" y="176.52" width="12.68" height="7.16" style="fill:#fff;opacity:0.5;isolation:isolate"></rect><polygon points="134.5 176.52 134.5 182.83 136.19 176.52 134.5 176.52" style="fill:#fff;opacity:0.30000000000000004"></polygon><polygon points="137.97 176.52 136.05 183.68 135.19 183.68 137.11 176.52 137.97 176.52" style="fill:#fff;opacity:0.30000000000000004"></polygon><polygon points="199.02 207.47 130.57 207.47 129.93 207.92 199.66 207.92 199.02 207.47" style="fill:#407BFF"></polygon><rect x="208.5" y="156.01" width="29.19" height="16.9" style="fill:none;stroke:#407BFF;stroke-miterlimit:10"></rect><polyline points="208.5 167.64 222.43 167.64 222.43 159.44" style="fill:none;stroke:#407BFF;stroke-miterlimit:10"></polyline><line x1="228.63" y1="156.01" x2="228.63" y2="160.11" style="fill:none;stroke:#407BFF;stroke-miterlimit:10"></line><polyline points="228.63 163.54 228.63 167.64 237.69 167.64" style="fill:none;stroke:#407BFF;stroke-miterlimit:10"></polyline><line x1="235.59" y1="168.74" x2="235.59" y2="171.9" style="fill:none;stroke:#407BFF;stroke-miterlimit:10"></line><line x1="233.16" y1="168.74" x2="233.16" y2="171.9" style="fill:none;stroke:#407BFF;stroke-miterlimit:10"></line><line x1="230.73" y1="168.74" x2="230.73" y2="171.9" style="fill:none;stroke:#407BFF;stroke-miterlimit:10"></line><rect x="208.5" y="176.27" width="29.19" height="12.56" style="fill:none;stroke:#407BFF;stroke-miterlimit:10"></rect><polyline points="216.46 188.83 216.46 200.09 237.69 200.09 237.69 188.83" style="fill:none;stroke:#407BFF;stroke-miterlimit:10"></polyline><line x1="235.59" y1="190.44" x2="235.59" y2="193.61" style="fill:none;stroke:#407BFF;stroke-miterlimit:10"></line><line x1="233.16" y1="190.44" x2="233.16" y2="193.61" style="fill:none;stroke:#407BFF;stroke-miterlimit:10"></line><line x1="230.73" y1="190.44" x2="230.73" y2="193.61" style="fill:none;stroke:#407BFF;stroke-miterlimit:10"></line><line x1="228.25" y1="188.83" x2="228.25" y2="196.65" style="fill:none;stroke:#407BFF;stroke-miterlimit:10"></line><line x1="218.13" y1="176.35" x2="218.13" y2="186.06" style="fill:none;stroke:#407BFF;stroke-miterlimit:10"></line><line x1="228.25" y1="176.56" x2="228.25" y2="186.06" style="fill:none;stroke:#407BFF;stroke-miterlimit:10"></line><rect x="162.57" y="215.32" width="44.78" height="13.88" rx="2.83" style="fill:#fff;opacity:0.7000000000000001"></rect><path d="M169.77,224.44l.36-.8a3,3,0,0,0,1.82.61c.87,0,1.23-.31,1.23-.72,0-1.19-3.29-.41-3.29-2.46,0-.9.71-1.65,2.23-1.65a3.46,3.46,0,0,1,1.84.49l-.32.79a3.12,3.12,0,0,0-1.53-.43c-.85,0-1.2.33-1.2.75,0,1.18,3.28.41,3.28,2.44,0,.89-.72,1.65-2.24,1.65A3.54,3.54,0,0,1,169.77,224.44Z" style="fill:#407BFF"></path><path d="M179.36,224.17V225h-4.15v-5.54h4v.87h-3v1.43h2.67v.85h-2.67v1.53Z" style="fill:#407BFF"></path><path d="M180.5,219.49h1v4.67h2.9V225H180.5Z" style="fill:#407BFF"></path><path d="M189.38,224.17V225h-4.15v-5.54h4v.87h-3v1.43h2.68v.85h-2.68v1.53Z" style="fill:#407BFF"></path><path d="M190.1,222.26a3,3,0,0,1,5.15-1.92l-.66.63a1.92,1.92,0,0,0-1.48-.65,1.95,1.95,0,1,0,0,3.89,1.93,1.93,0,0,0,1.48-.66l.66.63a3,3,0,0,1-5.15-1.92Z" style="fill:#407BFF"></path><path d="M197.3,220.36h-1.84v-.87h4.7v.87h-1.84V225h-1Z" style="fill:#407BFF"></path><path d="M261.71,122.71v9.56H107v-9.56a5.11,5.11,0,0,1,5.12-5.11h36.34a2.71,2.71,0,0,1,2.55,1.78l.69,1.88a2.74,2.74,0,0,0,2.56,1.79h61.42a2.73,2.73,0,0,0,2.72-2.73,2.72,2.72,0,0,1,2.73-2.72h35.51A5.11,5.11,0,0,1,261.71,122.71Z" style="opacity:0.2;isolation:isolate"></path><polygon points="119.98 138.84 116.17 135.27 112.36 138.84 113.34 138.84 113.34 141.92 119.01 141.92 119.01 138.84 119.98 138.84" style="opacity:0.2;isolation:isolate"></polygon><path d="M206,141.19H134.71a2.59,2.59,0,0,1-2.6-2.59h0a2.59,2.59,0,0,1,2.6-2.6H206a2.59,2.59,0,0,1,2.59,2.6h0A2.59,2.59,0,0,1,206,141.19Z" style="fill:#fff"></path><rect x="216.59" y="135.8" width="5.59" height="5.59" rx="1.1" style="opacity:0.2;isolation:isolate"></rect><rect x="226.59" y="135.8" width="5.59" height="5.59" rx="1.1" style="opacity:0.2;isolation:isolate"></rect><rect x="236.59" y="135.8" width="5.59" height="5.59" rx="1.1" style="opacity:0.2;isolation:isolate"></rect><path d="M247.91,137.93v1.33l.69.07a3.6,3.6,0,0,0,.51,1.23l-.44.53.94.94.53-.44a3.6,3.6,0,0,0,1.23.51l.07.69h1.33l.06-.69a3.45,3.45,0,0,0,1.23-.51l.54.44.94-.94-.44-.53a3.6,3.6,0,0,0,.51-1.23l.69-.07v-1.33l-.69-.06a3.57,3.57,0,0,0-.51-1.24l.44-.53-.94-.94-.54.44a3.45,3.45,0,0,0-1.23-.51l-.06-.69h-1.33l-.07.69a3.6,3.6,0,0,0-1.23.51l-.53-.44-.94.94.44.53a3.57,3.57,0,0,0-.51,1.24Zm4.19-1.14a1.81,1.81,0,1,1-1.8,1.81A1.81,1.81,0,0,1,252.1,136.79Z" style="opacity:0.2;isolation:isolate"></path><path d="M255.17,337.55h0a3.22,3.22,0,0,1-3.22-3.22V243.65a3.22,3.22,0,0,1,3.22-3.22h0a3.22,3.22,0,0,1,3.22,3.22v90.68A3.22,3.22,0,0,1,255.17,337.55Z" style="opacity:0.2;isolation:isolate"></path><path d="M255.17,256.1a2.91,2.91,0,0,0-2.91,2.91v14a2.91,2.91,0,1,0,5.82,0V259A2.91,2.91,0,0,0,255.17,256.1Z" style="fill:#fff"></path><rect x="114.17" y="239.56" width="133.83" height="41.67" style="fill:#fff;opacity:0.4"></rect><rect x="127.85" y="231.89" width="35.67" height="57.02" transform="translate(406.08 114.72) rotate(90)" style="opacity:0.2;isolation:isolate"></rect><rect x="114.17" y="282.56" width="133.83" height="41.67" style="fill:#fff;opacity:0.4"></rect><rect x="114.17" y="325.56" width="133.83" height="12.69" style="fill:#fff;opacity:0.4"></rect><path d="M261.71,340.36v8.44a5.11,5.11,0,0,1-5.12,5.11H112.07A5.11,5.11,0,0,1,107,348.8v-8.44Z" style="opacity:0.2;isolation:isolate"></path><g style="opacity:0.2;isolation:isolate"><path d="M161.7,265.92V265h-.79V256h.35v-.94h-4.77L149,248h-14.3L128,255.09h-.46V256h.33v2.61h0v3.7h0V265h-1.1v9.66h-.95l-.33.23h36l-.33-.23h-.74v-8.71Zm-4.55-.95v-.07h2.69V265Zm-3.77-2.41h.67v.26h-.67Zm3.56.26h-2.69v-.26h2.69Zm0,.07v.26h-2.69v-.26Zm0,.33v.27h-2.69v-.27Zm0,.34v.26h-2.69v-.26Zm0,.33v.27h-2.69v-.27Zm0,.34v.26h-2.69v-.26Zm0,.33v.27h-2.69v-.27Zm0,.34V265h-2.69v-.07Zm-3.56-2h.67v.26h-.67Zm0,.33h.67v.27h-.67Zm0,.34h.67v.26h-.67Zm0,.33h.67v.27h-.67Zm0,.34h.67v.26h-.67Zm0,.33h.67v.27h-.67Zm0,.34h.67V265h-.67Zm6.46-2.08h-2.69v-.26h2.69Zm0,.07v.26h-2.69v-.26Zm0,.33v.27h-2.69v-.27Zm0,.34v.26h-2.69v-.26Zm0,.33v.27h-2.69v-.27Zm0,.34v.26h-2.69v-.26Zm0,.33v.27h-2.69v-.27Zm.73-8.53V265H160v-2.41h.38v-.27h-7V256Zm-2.84,18.6v-8.71h.76v8.71Zm2.11,0h-.77v-8.71h.77Z"></path><rect x="117.17" y="274.63" width="57.02" height="3.6"></rect></g><rect x="127.85" y="274.89" width="35.67" height="57.02" transform="translate(449.08 157.72) rotate(90)" style="opacity:0.2;isolation:isolate"></rect><rect x="117.17" y="328.56" width="57.02" height="9.69" style="opacity:0.2;isolation:isolate"></rect><polygon points="169.11 316.28 169.11 304.15 169.85 304.15 169.85 303.13 157.93 303.13 157.93 302.67 157.11 302.67 155.35 301.32 153.6 301.32 153.6 293.58 155.01 293.58 155.01 293.27 155.01 293.27 155.01 293.27 155.01 292.64 154.19 292.64 150.68 289.95 129.42 289.95 125.99 292.64 124.8 292.64 124.8 293.58 126.34 293.58 126.34 301.32 124.63 301.32 122.91 302.67 121.72 302.67 121.72 303.6 124.34 303.6 124.34 316.28 117.17 316.28 117.17 321.23 174.19 321.23 174.19 316.28 169.11 316.28" style="opacity:0.2;isolation:isolate"></polygon><g style="opacity:0.2;isolation:isolate"><path d="M218.35,248.28H181.21a1.85,1.85,0,0,1-1.85-1.86h0a1.86,1.86,0,0,1,1.85-1.86h37.14a1.86,1.86,0,0,1,1.86,1.86h0A1.86,1.86,0,0,1,218.35,248.28Z"></path><path d="M232.92,258H180.49a1.13,1.13,0,0,1-1.13-1.14h0a1.13,1.13,0,0,1,1.13-1.14h52.43a1.13,1.13,0,0,1,1.13,1.14h0A1.13,1.13,0,0,1,232.92,258Z"></path><path d="M232.92,263.54H180.49a1.13,1.13,0,0,1-1.13-1.14h0a1.13,1.13,0,0,1,1.13-1.14h52.43a1.13,1.13,0,0,1,1.13,1.14h0A1.13,1.13,0,0,1,232.92,263.54Z"></path><path d="M232.92,269H180.49a1.13,1.13,0,0,1-1.13-1.13h0a1.13,1.13,0,0,1,1.13-1.14h52.43a1.13,1.13,0,0,1,1.13,1.14h0A1.13,1.13,0,0,1,232.92,269Z"></path><path d="M232.92,274.55H180.49a1.13,1.13,0,0,1-1.13-1.14h0a1.13,1.13,0,0,1,1.13-1.13h52.43a1.13,1.13,0,0,1,1.13,1.13h0A1.13,1.13,0,0,1,232.92,274.55Z"></path></g><g style="opacity:0.2;isolation:isolate"><path d="M218.35,292.28H181.21a1.85,1.85,0,0,1-1.85-1.86h0a1.86,1.86,0,0,1,1.85-1.86h37.14a1.86,1.86,0,0,1,1.86,1.86h0A1.86,1.86,0,0,1,218.35,292.28Z"></path><path d="M232.92,302H180.49a1.13,1.13,0,0,1-1.13-1.14h0a1.13,1.13,0,0,1,1.13-1.14h52.43a1.13,1.13,0,0,1,1.13,1.14h0A1.13,1.13,0,0,1,232.92,302Z"></path><path d="M232.92,307.54H180.49a1.13,1.13,0,0,1-1.13-1.14h0a1.13,1.13,0,0,1,1.13-1.14h52.43a1.13,1.13,0,0,1,1.13,1.14h0A1.13,1.13,0,0,1,232.92,307.54Z"></path><path d="M232.92,313H180.49a1.13,1.13,0,0,1-1.13-1.13h0a1.13,1.13,0,0,1,1.13-1.14h52.43a1.13,1.13,0,0,1,1.13,1.14h0A1.13,1.13,0,0,1,232.92,313Z"></path><path d="M232.92,318.55H180.49a1.13,1.13,0,0,1-1.13-1.14h0a1.13,1.13,0,0,1,1.13-1.13h52.43a1.13,1.13,0,0,1,1.13,1.13h0A1.13,1.13,0,0,1,232.92,318.55Z"></path></g></g><g id="freepik--Characters--inject-45"><g id="freepik--group--inject-45"><path d="M346.59,215.61s-1.73,3.5-3,4-13.16-17.14-13.16-17.14a8.63,8.63,0,0,0-1.42-2.52c-.85-.91-5.42-2.56-7.24-2.49s-3,3.18-3.62,4.59-.17,1.82,2.55,2.65,4.27,2,6,.54c0,0,9.94,22.72,15.45,23.28,7.2.74,11.67-10.31,11.67-10.31Z" style="fill:#e4897b"></path><path d="M351.52,198.16s-5.35,15.9-6.87,20.28c0,0,5.65,6.53,10.33,6.67l5.17-15.34Z" style="fill:#407BFF"></path><path d="M351.52,198.16s-5.35,15.9-6.87,20.28c0,0,5.65,6.53,10.33,6.67l5.17-15.34Z" style="fill:#fff;opacity:0.2"></path><path d="M365.58,417.23l-1.09-4.94-.19-8.91h-7.45c-.8-2.74-3-1.21-3-1.21l-1,8.22c-1.89,1.69-6.32,3.47-12.21,4.75-1.31.29-.9,3.46,2.31,3.46s10.22-.24,12.54-.24c3.77,0,6,.18,9,.23a1,1,0,0,0,.25,0A1.13,1.13,0,0,0,365.58,417.23Z" style="fill:#263238"></path><path d="M408.58,417.23l-1.09-4.94-1.66-8.91h-7.45a1.81,1.81,0,0,0-3-1.21l.45,8.22c-1.89,1.69-6.32,3.47-12.21,4.75-1.31.29-.9,3.46,2.31,3.46s10.22-.24,12.54-.24c3.77,0,6,.18,9,.23a1,1,0,0,0,.25,0A1.13,1.13,0,0,0,408.58,417.23Z" style="fill:#263238"></path><path d="M407.61,408.6H394.37s-13.84-70.49-14.95-78.28c-.67-4.74-2.06-50.52-2.23-52.7v0c-.78,2.18-12.16,47.91-12.16,47.91s2.15,55.2.83,81h-13.6s-5.7-52.57-4.43-81c1.92-42.91,11-81.73,12.05-87.48h40.56c5.8,26.94.08,93,.08,93S405.86,382.85,407.61,408.6Z" style="fill:#263238"></path><polygon points="359.43 240.24 400.11 236.86 400.51 241.7 359.27 244.63 359.43 240.24"></polygon><rect x="385.75" y="235.81" width="1.46" height="8.63" transform="translate(-18.55 32.82) rotate(-4.75)" style="fill:#263238"></rect><rect x="365.17" y="237.52" width="1.46" height="8.63" transform="translate(-18.78 31.15) rotate(-4.75)" style="fill:#263238"></rect><rect x="370.59" y="238.16" width="7.55" height="5.44" transform="translate(-18.66 31.83) rotate(-4.75)" style="fill:#fff"></rect><path d="M365.64,181.6c9.41-5.59,24.84.72,24.84.72.38,1.85,9.6,20.47,9.95,55.76l-41,2.16s-4-35-7.91-42.08C351.52,198.16,353.15,189,365.64,181.6Z" style="fill:#407BFF"></path><path d="M400.43,238.08l-41,2.16s-4-35-7.91-42.08c0,0,1.63-9.14,14.12-16.56,9.41-5.59,24.84.72,24.84.72a135.25,135.25,0,0,1,8.17,31.48A185,185,0,0,1,400.43,238.08Z" style="fill:#fff;opacity:0.4"></path><path d="M360.57,180.58a5.16,5.16,0,0,1,1,3.11,4.68,4.68,0,0,1-1.43,2.17,8.83,8.83,0,0,0,3.69,1.34l5.11-2.33s2.54-.55,3.19-1.45c.54-.74,1.12-1.47,1.6-2.25a10,10,0,0,0,.63-1.27,5.43,5.43,0,0,1-3.59-1.49c-2.21-2.49-5.77-12.78-5.77-12.78L356.25,175s.2.2.51.56A37.48,37.48,0,0,1,360.57,180.58Z" style="fill:#e4897b"></path><path d="M366.07,172.44s-.11,5.87-5.5,8.14a37.48,37.48,0,0,0-3.81-5c.33-.34.55-.55.55-.55Z" style="opacity:0.2;isolation:isolate"></path><path d="M342.14,156.49s1.05,10.3,7.3,12.75,1.48-16,1.48-16Z" style="fill:#263238"></path><path d="M366.74,173.18a9.3,9.3,0,0,1-9.43,6.15,10.44,10.44,0,0,1-6.92-3.18c-.25-.26-.49-.54-.72-.83-4.15-5.39-7.71-15.77-2.33-21.39a10.08,10.08,0,0,1,16.79,3.5C366.74,164.31,368.6,168.23,366.74,173.18Z" style="fill:#e4897b"></path><path d="M354.78,163.88a.92.92,0,0,1-.2,1.27c-.37.17-.85-.15-1.09-.7s-.15-1.12.2-1.27S354.53,163.33,354.78,163.88Z" style="fill:#263238"></path><path d="M348.61,166.65a.92.92,0,0,1-.21,1.27c-.36.16-.85-.15-1.09-.7s-.15-1.12.2-1.27S348.37,166.13,348.61,166.65Z" style="fill:#263238"></path><path d="M350.69,166a21.23,21.23,0,0,1-.52,5.84,3.47,3.47,0,0,0,2.85-.69Z" style="fill:#de5753"></path><path d="M345.13,165a.33.33,0,0,0,.33-.15,2.82,2.82,0,0,1,2.19-1.3.35.35,0,0,0,0-.7h0a3.49,3.49,0,0,0-2.77,1.6.36.36,0,0,0,.08.49h0Z" style="fill:#263238"></path><path d="M354.9,160.86a.36.36,0,0,0,.15-.15.34.34,0,0,0-.23-.43h0a3.53,3.53,0,0,0-3.17.55.35.35,0,0,0,0,.49h0a.35.35,0,0,0,.49,0h0a2.86,2.86,0,0,1,2.52-.39A.37.37,0,0,0,354.9,160.86Z" style="fill:#263238"></path><path d="M348.89,149.46l7.38,5a2.42,2.42,0,0,1,2.24,2.39c0,2.92,3,6.29,5.57,7.1,0,0-.37-1.12.66-1.23s3,5.73,2.28,9.17c0,0,1.77-3.55,1-10.16-.76-6.13-3.62-14.44-6.12-15.2C356.2,144.79,348.89,149.46,348.89,149.46Z" style="fill:#263238"></path><path d="M369.53,161.62a7,7,0,0,1-2.21,4.87c-1.81,1.67-3.82.32-4.26-2-.37-2,.08-5.4,2.36-6.18A3.13,3.13,0,0,1,369.53,161.62Z" style="fill:#e4897b"></path><path d="M354.22,172.74a19,19,0,0,1,1.93,2c.14-.08.29-.16.42-.25,1.92-1.14,2.43-2.31,2.41-3.25a2.81,2.81,0,0,0-.38-1.31,2.65,2.65,0,0,0-.45-.63,10.56,10.56,0,0,1-3.29,3Z" style="fill:#263238"></path><path d="M354.86,172.34l.59.58c1.8-1.09,2.92-2.1,3.15-3a2.65,2.65,0,0,0-.45-.63A10.56,10.56,0,0,1,354.86,172.34Z" style="fill:#fff"></path><path d="M356.57,174.5c1.92-1.14,2.43-2.31,2.41-3.25a7.06,7.06,0,0,0-1.87,1.69A2.72,2.72,0,0,0,356.57,174.5Z" style="fill:#de5753"></path><path d="M342.14,156.49c0,.86,2.34,2.86,5.59,2.82s-.87-1.41-.87-1.41,6.25-.7,6.07-1.45-2.31-1-2.31-1,5.47,0,8.68-2.62-6.25-5.5-10.41-3.39S342.27,153.87,342.14,156.49Z" style="fill:#263238"></path><path d="M355,170.73s2.36-3.15,3.4-3.33,6.1,8,6.1,8,.75,1.88-3.86,3.53-4.52.55-5.65-1.43-2.88-3.09-3.08-4.4,2.69-1.91,2.69-1.91l.32.27s-1.69.86-1.47,1.84,1.74,3.95,3.36,4.14.93-1.47.93-1.47l1.28-.95s1.12,1.17,2.06.64.19-3.25-.85-4.73-1.21-1.8-2.11-1.66a8.67,8.67,0,0,0-2.68,1.74Z" style="fill:#263238"></path><rect x="345.48" y="168.17" width="4.31" height="2.3" rx="0.4" transform="translate(-37.65 136.49) rotate(-21.1)" style="fill:none;stroke:#263238;stroke-linecap:round;stroke-linejoin:round;stroke-width:0.5px"></rect><rect x="351.93" y="165.68" width="4.31" height="2.3" rx="0.4" transform="translate(-36.32 138.64) rotate(-21.1)" style="fill:none;stroke:#263238;stroke-linecap:round;stroke-linejoin:round;stroke-width:0.5px"></rect><path d="M349.65,168.55a2.16,2.16,0,0,1,2.42-.94" style="fill:none;stroke:#263238;stroke-linecap:round;stroke-linejoin:round;stroke-width:0.5px"></path><polygon points="367.05 185.26 370.39 176.79 376.05 178.78 372.94 190.08 366.91 186.26 364.48 192.54 358.64 186.53 361.15 181.69 367.05 185.26" style="fill:#407BFF"></polygon><polygon points="367.05 185.26 370.39 176.79 376.05 178.78 372.94 190.08 366.91 186.26 364.48 192.54 358.64 186.53 361.15 181.69 367.05 185.26" style="fill:#fff;opacity:0.2"></polygon><path d="M398.65,213.8c-15.25-10.6-8.17-31.48-8.17-31.48A135.25,135.25,0,0,1,398.65,213.8Z" style="opacity:0.1;isolation:isolate"></path></g><path d="M317.46,202c-3.61.77-13.34,18.62-14.56,18.48-3.59-.43-3.41-10-5.41-9a4.08,4.08,0,0,0-2,3.62s.54,8.92,4,12.23c6.07,5.84,18-13.42,18-13.42Z" style="fill:#407BFF"></path><path d="M317.46,202v12s-11.65,18.86-17.78,13.59l-.19-.17c-3.44-3.31-4-12.23-4-12.23a4.08,4.08,0,0,1,2-3.62c1.9-1,1.83,7.58,4.89,8.82a1.82,1.82,0,0,0,.52.14C304.12,220.66,313.85,202.81,317.46,202Z" style="fill:#fff;opacity:0.7000000000000001"></path><path d="M317.46,202v12s-11.65,18.86-17.78,13.59c3.2-1,2.7-6,2.7-7.2a1.82,1.82,0,0,0,.52.14C304.12,220.66,313.85,202.81,317.46,202Z" style="opacity:0.2;isolation:isolate"></path><path d="M309.29,253.75s-10.19,54.32-12.91,76.62C292.82,359.47,278.3,402,278.3,402l5.81,1.5s20.48-36.17,24.47-68.71c16.27-33.26,17.58-74.22,17.58-74.22Z" style="fill:#eec1bb"></path><path d="M267.48,415.2a8.57,8.57,0,0,1,3-.76h0s3.58-2.1,7.12-10.27l4,0a3.26,3.26,0,0,1,3.05,2.19,1.75,1.75,0,0,1,.12.55,21.34,21.34,0,0,1-.31,2.87,79.29,79.29,0,0,1-2.33,9.36l-.67-.17,1.23-5.94c.4-2-1.72-.07-2.7,2s-2.49,4.08-6.89,3.08C267.94,416.86,265.87,416.12,267.48,415.2Z" style="fill:#2e353a"></path><path d="M319.87,252.88s1.27,55.26,3.22,77.64c2.54,29.2-2.87,73.85-2.87,73.85l6,.27S338.77,365,336,332.35c9-35.91,1.85-76.25,1.85-76.25Z" style="fill:#eec1bb"></path><path d="M310.89,417a8.57,8.57,0,0,1,2.89-1.08h0s3.32-2.48,6-11l3.95-.45a3.29,3.29,0,0,1,3.28,1.85,2,2,0,0,1,.17.53,23.22,23.22,0,0,1,0,2.89,80.62,80.62,0,0,1-1.3,9.56l-.69-.1.57-6c.19-2.05-1.71.12-2.46,2.25s-2,4.33-6.52,3.8C311.53,418.62,309.4,418.11,310.89,417Z" style="fill:#2e353a"></path><path d="M307,245.52l-20.8,114.1s47.34,5.65,63.39,2.35c0,0,3.93-82.26-12.82-114.72Z" style="fill:#407BFF"></path><path d="M307,245.52l-20.8,114.1s47.34,5.65,63.39,2.35c0,0,3.93-82.26-12.82-114.72Z" style="fill:#fff;opacity:0.2;isolation:isolate"></path><path d="M278.3,402s-5,10.4-7.84,12.41c0,0,3.84,2.29,7.84-2.8,5.16-6.59,6.43-4.75,6.43-4.75a19,19,0,0,0-.62-3.36C283.33,401.41,278.3,402,278.3,402Z" style="fill:#eec1bb"></path><path d="M320.83,402s-1.41,3.85-3.29,8.08a18.36,18.36,0,0,1-3.76,5.91s3.26,1.06,5-1,4.78-9.44,8.16-8.59a7.94,7.94,0,0,0-.75-1.72C325.71,403.8,320.83,402,320.83,402Z" style="fill:#eec1bb"></path><path d="M327.42,188.48s-5-13.76,7.62-16.19,18.87,7.89,15.39,17.93c0,0,4.62,1.89,2.3,5.43s2.55,2.21,3.4,5.82-3.67,2.9-1.15,4.19,7.06,5.58-.19,9.24-26,5.21-29.62-.33-2.54-9.84.47-11.91-1.22-.26-1-4.8,2.34-3,2.19-4.85S325.88,189,327.42,188.48Z" style="fill:#263238"></path><path d="M348.68,222.73c-1.89,3.27-3.43,6.11-4.73,8.68a93,93,0,0,0-7.45,19.12l-28.2-7.84c3.41-20.29,6.42-31.18,8.19-36.57,1.9-5.74,2.85-5.75,2.85-5.75s6.5.83,12,2.13a92.94,92.94,0,0,1,12.47,4.24A85.69,85.69,0,0,1,355,212.28c-1.06,1.69-2.05,3.31-3,4.83C350.8,219.12,349.7,221,348.68,222.73Z" style="fill:#407BFF"></path><path d="M355,212.28q-1.49,2.35-2.77,4.49l-.21.34c-.72,1.19-1.4,2.33-2.05,3.43-.43.76-.87,1.48-1.27,2.19-.14.24-.29.48-.41.71-1.72,3-3.13,5.6-4.32,8-1.56,3.05-2.77,5.72-3.78,8.24q-.48,1.17-.9,2.31c-.34.95-.66,1.89-1,2.83-.74,2.19-1.09,3.32-1.8,5.74l-28.21-7.84c3.42-20.28,6.43-31.18,8.2-36.57,1.9-5.73,2.85-5.75,2.85-5.75s6.5.83,12,2.13a91.42,91.42,0,0,1,12.46,4.24A85.81,85.81,0,0,1,355,212.28Z" style="fill:#fff;opacity:0.8"></path><polygon points="338.27 246.89 308.01 242.02 306.8 246.86 338.82 251.61 338.27 246.89" style="fill:#263238"></polygon><path d="M316,244.81l-.17,2.32A1.79,1.79,0,0,0,317.3,249l3.61.59.16,0a1.85,1.85,0,0,0,1.26-.38A1.87,1.87,0,0,0,323,248l.17-2.32a1.8,1.8,0,0,0-1.52-1.92l-3.61-.58a1.8,1.8,0,0,0-1.41.37A1.83,1.83,0,0,0,316,244.81Zm.76,2.38.06-.76,0,0,1,.15a.62.62,0,0,0,.18-1.22l-1-.15h-.14l0-.35a.87.87,0,0,1,.33-.62.86.86,0,0,1,.61-.19h.07l3.61.58a.87.87,0,0,1,.74.93l-.17,2.32a.87.87,0,0,1-.33.62.86.86,0,0,1-.69.18l-3.61-.59A.87.87,0,0,1,316.72,247.19Z" style="fill:#fff"></path><path d="M319.56,194.21l3.15,30.29a1.14,1.14,0,0,1-1.15,1.3h-19a1.48,1.48,0,0,1-1.43-1.3l-3.15-30.29a1.15,1.15,0,0,1,1.15-1.31h19A1.49,1.49,0,0,1,319.56,194.21Z" style="fill:#263238"></path><path d="M318.56,194.21l3.15,30.29a1.14,1.14,0,0,1-1.15,1.3h-18a1.48,1.48,0,0,1-1.43-1.3l-3.15-30.29a1.15,1.15,0,0,1,1.15-1.31h18A1.49,1.49,0,0,1,318.56,194.21Z" style="fill:#fff;opacity:0.2"></path><path d="M310.17,205.26a2.4,2.4,0,0,0-.28,0c-1.34,0-2.28,1.42-2.1,3.16s1.42,3.17,2.76,3.17,2.28-1.42,2.1-3.17v0A3.36,3.36,0,0,1,310.17,205.26Z" style="fill:#fff;opacity:0.6000000000000001"></path><path d="M301,205.68s-5.63,3.49-5.48,5.41c.08,1,.27,3.93,1.33,4.35,1.78.71,6.74-3.34,6.63-3.88S302.89,206.07,301,205.68Z" style="fill:#eec1bb"></path><path d="M338.31,202.82s11.4,4.1,9.18,9.73S334,211.2,334,211.2l-5.27,10.93,3.32-11.37s-7.33,2.64-7-2.58S330.55,201.75,338.31,202.82Z" style="fill:#fff"></path><path d="M344.65,196.61a14.35,14.35,0,0,0-1.66,2.64s0,0,0,0c-1.09,2.23-2,5.49-.08,8.36,0,0-2.64,2.38-9.47,1.72,0,0-2.8-2.91-.8-5.22,0,0,1,.2,1.93-1.1a8.4,8.4,0,0,0,1.32-3.31,24.21,24.21,0,0,0,.45-3.43Z" style="fill:#eec1bb"></path><path d="M344.65,196.61a14.35,14.35,0,0,0-1.66,2.64s0,0,0,0a10,10,0,0,1-8.42,3.76,8.4,8.4,0,0,0,1.32-3.31,24.21,24.21,0,0,0,.45-3.43Z" style="opacity:0.2;isolation:isolate"></path><path d="M336.11,176.31c-7.09.76-9,4.81-8.69,12.17.33,9.2,3.06,15.47,11.71,12.57C350.89,197.1,347.89,175,336.11,176.31Z" style="fill:#eec1bb"></path><path d="M332,187.59a15.22,15.22,0,0,1-1.75,3.16,2,2,0,0,0,2,.6Z" style="fill:#d4827d"></path><path d="M336.24,186.54c0,.58.4,1,.79,1s.66-.53.62-1.12-.41-1-.8-1S336.19,186,336.24,186.54Z" style="fill:#263238"></path><path d="M337,185.44l-1.32-.39S336.43,186.06,337,185.44Z" style="fill:#263238"></path><path d="M329,187c.05.59.41,1,.8,1s.66-.53.61-1.12-.4-1-.79-1S328.92,186.45,329,187Z" style="fill:#263238"></path><path d="M329.75,185.93l-1.32-.39S329.16,186.55,329.75,185.93Z" style="fill:#263238"></path><path d="M335.78,181.64a3.69,3.69,0,0,1,3.19.74" style="fill:none;stroke:#263238;stroke-linecap:round;stroke-linejoin:round;stroke-width:0.7246800000000001px"></path><path d="M330.59,181.89a3.31,3.31,0,0,0-2.76.89" style="fill:none;stroke:#263238;stroke-linecap:round;stroke-linejoin:round;stroke-width:0.7246800000000001px"></path><path d="M333.5,194a18.65,18.65,0,0,1,1.1,2.38l.45-.1c2-.43,2.84-1.3,3.12-2.14a2.8,2.8,0,0,0,.07-1.27,2.71,2.71,0,0,0-.21-.7,9.92,9.92,0,0,1-3.83,1.67C333.77,194,333.5,194,333.5,194Z" style="fill:#263238"></path><path d="M334.2,193.87l.34.7c1.92-.42,3.22-1,3.7-1.67a2.71,2.71,0,0,0-.21-.7A9.92,9.92,0,0,1,334.2,193.87Z" style="fill:#fff"></path><path d="M335.05,196.31c2-.43,2.84-1.3,3.12-2.14a6.64,6.64,0,0,0-2.18.93A2.44,2.44,0,0,0,335.05,196.31Z" style="fill:#de5753"></path><path d="M345.15,187.42s-3.94-5.47-3.93-10c0,0-14.67-4.22-13.82,10.12,0,0-2.74-12.52,9.42-14.12s14,16.24,8.31,22.24C345.13,195.64,347.6,190.85,345.15,187.42Z" style="fill:#263238"></path><path d="M344.15,189.05a3.14,3.14,0,0,1,3.05-3.21c2.22,0,3.75,4.4-1.59,6.08C344.84,192.16,344.31,191.44,344.15,189.05Z" style="fill:#eec1bb"></path><path d="M342.06,177.29s-7.11-1-8.25,1.06-6.6,1.15-6.71,6.75c0,0-2.72-7.26,4.69-9.51S342.06,177.29,342.06,177.29Z" style="fill:#263238"></path><polygon points="351.37 236.53 351.92 236.94 351.35 236.55 351.37 236.53" style="opacity:0.2;isolation:isolate"></polygon><path d="M352.22,216.77l-.21.34c-.72,1.19-1.4,2.33-2.05,3.43-.43.76-.87,1.48-1.27,2.19-.14.24-.29.48-.41.71-1.72,3-3.13,5.6-4.32,8-1.56,3.05-2.77,5.72-3.78,8.24-3.62-5.43-3.1-20.71-3.1-20.71h2.52s3.44,6.83,5,7.16,6.7-10.58,6.7-10.58Z" style="opacity:0.2;isolation:isolate"></path><path d="M341.65,221l-1.77-3.43a5.41,5.41,0,0,0-.42-2.31c-.44-.59-9.47-1.54-10.72-1.59s-.42,6.39,0,7,7.64.73,8.63,0l1.45,3.28Z" style="fill:#eec1bb"></path><path d="M355,212.28c4.47,3.27,2,27.42-5,28.6-6.79,1.14-12.66-18.37-12.66-18.37l4.28-2.93s5.33,12.19,6.76,11.69c2.47-.86,1.55-10.73,1.55-10.73a43,43,0,0,1,1.39-5C352.14,213.37,355,212.28,355,212.28Z" style="fill:#407BFF"></path><path d="M355,212.28c4.47,3.27,2,27.42-5,28.6-6.79,1.14-12.66-18.37-12.66-18.37l4.28-2.93s5.33,12.19,6.76,11.69c2.47-.86,1.55-10.73,1.55-10.73a43,43,0,0,1,1.39-5C352.14,213.37,355,212.28,355,212.28Z" style="fill:#fff;opacity:0.7000000000000001"></path><path d="M386.48,199.33s-.33,10.49-1.92,13.95-23.14-7.6-23.14-7.6a16.19,16.19,0,0,0-2.88-2c-1.28-.59-10.72-.16-12.13,1s1.23,6.78,1.23,6.78,9.21,1.49,11,1.3a4.08,4.08,0,0,0,2.78-1.91s16,9.36,21.73,9.5,8.81-3.25,10.71-16.17Z" style="fill:#e4897b"></path><path d="M390.48,182.32c-4.68-2.54-5.92,21.36-5.92,21.36l10.29,5.76S400,187.47,390.48,182.32Z" style="fill:#407BFF"></path><path d="M390.48,182.32c-4.68-2.54-5.92,21.36-5.92,21.36l10.29,5.76S400,187.47,390.48,182.32Z" style="fill:#fff;opacity:0.2"></path></g></svg>